<svg xmlns="http://www.w3.org/2000/svg" xmlns:xlink="http://www.w3.org/1999/xlink" viewBox="0 0 650 196.1"><defs><style>.cls-1{fill:#fff;}.cls-2{fill:#c4df07;}.cls-3{fill:url(#linear-gradient);}.cls-4{fill:url(#linear-gradient-2);}</style><linearGradient id="linear-gradient" x1="46.15" y1="155.71" x2="46.15" y2="182.56" gradientUnits="userSpaceOnUse"><stop offset="0" stop-color="#a0b505"/><stop offset="1" stop-color="#c4df07" stop-opacity="0"/></linearGradient><linearGradient id="linear-gradient-2" x1="50.21" y1="99.56" x2="50.21" y2="62.99" xlink:href="#linear-gradient"/></defs><g id="Layer_2" data-name="Layer 2"><g id="Layer_1-2" data-name="Layer 1"><path class="cls-1" d="M262.46,67.48a32.77,32.77,0,0,1-13.67,13q-9.22,4.94-22.9,4.93H209v40.07H181.84V13.81h44q13.35,0,22.58,4.61a31.74,31.74,0,0,1,13.84,12.72,37,37,0,0,1,4.6,18.61A35.91,35.91,0,0,1,262.46,67.48Zm-27-7.39q3.81-3.66,3.81-10.34t-3.81-10.34c-2.54-2.44-6.42-3.65-11.61-3.65H209v28h14.79C229,63.74,232.89,62.52,235.43,60.09Z"/><path class="cls-1" d="M337.84,105.73H296.17l-6.67,19.71H261L301.42,13.81h31.49L373.3,125.44H344.52Zm-7-21L317,43.86,303.33,84.73Z"/><path class="cls-1" d="M458.22,20.81a49.91,49.91,0,0,1,20.43,19.64q7.25,12.63,7.24,29.18,0,16.38-7.24,29.1a49.75,49.75,0,0,1-20.51,19.72q-13.27,7-30.77,7H385.55V13.81h41.82Q445,13.81,458.22,20.81Zm-8.59,72.67q8.6-8.43,8.59-23.85t-8.59-24q-8.58-8.58-24-8.58H412.74v64.88h12.88Q441,101.91,449.63,93.48Z"/><path class="cls-1" d="M528.35,35.59V58.18h36.42v21H528.35v24.49h41.19v21.78H501.15V13.81h68.39V35.59Z"/><path class="cls-1" d="M614.38,104.45H650v21H587.19V13.81h27.19Z"/><path class="cls-1" d="M214.93,162.38a13.14,13.14,0,0,1-5.58,5.32,20.4,20.4,0,0,1-9.59,2h-7.87v18h-9.42v-47h17.29a21,21,0,0,1,9.28,1.88,13.14,13.14,0,0,1,5.76,5.18,15.25,15.25,0,0,1,.13,14.54Zm-9.79-2a6.56,6.56,0,0,0,1.88-5q0-6.85-7.67-6.86h-7.46v13.66h7.46C202,162.11,203.88,161.52,205.14,160.33Z"/><path class="cls-1" d="M253.19,187.75l-10.37-18.31h-4.44v18.31H229v-47h17.63a20.74,20.74,0,0,1,9.29,1.91,13.5,13.5,0,0,1,5.75,5.19,14.58,14.58,0,0,1-.77,15.67,13.86,13.86,0,0,1-8,5.15l11.23,19.05Zm-14.81-25.37h7.88c2.55,0,4.46-.62,5.71-1.85a6.89,6.89,0,0,0,1.89-5.15,6.56,6.56,0,0,0-1.89-5c-1.25-1.19-3.16-1.79-5.71-1.79h-7.88Z"/><path class="cls-1" d="M287.37,185.12a23.1,23.1,0,0,1-8.75-8.58,25.34,25.34,0,0,1,0-24.76,23.1,23.1,0,0,1,8.75-8.58,25.35,25.35,0,0,1,24.26,0,22.92,22.92,0,0,1,8.68,8.58,25.62,25.62,0,0,1,0,24.76,22.81,22.81,0,0,1-8.72,8.58,25.2,25.2,0,0,1-24.22,0ZM307,177.89A13.24,13.24,0,0,0,312,172.4a19.75,19.75,0,0,0,0-16.52,13,13,0,0,0-5.05-5.41,14.5,14.5,0,0,0-7.47-1.89,14.66,14.66,0,0,0-7.5,1.89,12.84,12.84,0,0,0-5.08,5.41,19.65,19.65,0,0,0,0,16.52,13.05,13.05,0,0,0,5.08,5.49,14.48,14.48,0,0,0,7.5,1.92A14.32,14.32,0,0,0,307,177.89Z"/><path class="cls-1" d="M368.79,154.91a11,11,0,0,0-4.44-4.51,13.58,13.58,0,0,0-6.6-1.55,14.37,14.37,0,0,0-7.4,1.89,13,13,0,0,0-5.05,5.38,19,19,0,0,0,0,16.28,13.11,13.11,0,0,0,5.14,5.39,15.27,15.27,0,0,0,7.67,1.88,13.3,13.3,0,0,0,8.82-2.86,13.65,13.65,0,0,0,4.51-8H355.33v-7.2h25.44v8.21a22.15,22.15,0,0,1-4,9.08,23,23,0,0,1-8,6.7,23.44,23.44,0,0,1-10.93,2.52,24.75,24.75,0,0,1-12.28-3.06,22.31,22.31,0,0,1-8.62-8.51,26.2,26.2,0,0,1,0-24.8,22.27,22.27,0,0,1,8.62-8.55,26.23,26.23,0,0,1,26,.81,19.75,19.75,0,0,1,8.07,10.87Z"/><path class="cls-1" d="M417.57,187.75l-10.36-18.31h-4.44v18.31h-9.42v-47H411a20.67,20.67,0,0,1,9.28,1.91,13.47,13.47,0,0,1,5.76,5.19,14.11,14.11,0,0,1,1.92,7.3,13.6,13.6,0,0,1-10.7,13.52l11.23,19.05Zm-14.8-25.37h7.87q3.84,0,5.72-1.85a6.89,6.89,0,0,0,1.89-5.15,6.56,6.56,0,0,0-1.89-5q-1.87-1.78-5.72-1.79h-7.87Z"/><path class="cls-1" d="M470.86,178.8h-18.7l-3.1,8.95h-9.89l16.89-47h11l16.89,47H474Zm-2.55-7.54-6.8-19.65-6.8,19.65Z"/><path class="cls-1" d="M547,140.78v47h-9.42V157.2L525,187.75H517.9L505.25,157.2v30.55h-9.42v-47h10.7l14.94,34.92,14.93-34.92Z"/><path class="cls-1" d="M561.87,186.64a5.55,5.55,0,0,1,0-7.88,5.85,5.85,0,0,1,4.21-1.58,5.62,5.62,0,0,1,4.1,1.58,5.6,5.6,0,0,1,0,7.88,5.62,5.62,0,0,1-4.1,1.58A5.85,5.85,0,0,1,561.87,186.64Z"/><path class="cls-1" d="M613.79,178.8H595.08L592,187.75h-9.9l16.89-47h11l16.89,47h-10Zm-2.56-7.54-6.8-19.65-6.79,19.65Z"/><path class="cls-1" d="M648.17,140.78v47h-9.42v-47Z"/><path class="cls-2" d="M36,196.1H0V160.22a20.13,20.13,0,0,1,20.1-20.11H77.94a62.25,62.25,0,0,0,62.18-62.17v-2.1A60.15,60.15,0,0,0,80.05,15.77H77.94A62.17,62.17,0,0,0,15.77,77.94V95.42a4.34,4.34,0,0,0,4.33,4.33H40.36V78.89c0-19.49,16-37.09,34.87-38.43a37.61,37.61,0,0,1,40.2,40.2c-1.34,18.9-18.94,34.86-38.43,34.86H20.1A20.13,20.13,0,0,1,0,95.42V77.94A77.95,77.95,0,0,1,77.94,0h2.11a75.92,75.92,0,0,1,75.84,75.84v2.1a78,78,0,0,1-77.95,77.95H56.14V176A20.13,20.13,0,0,1,36,196.1ZM15.77,180.33H36A4.34,4.34,0,0,0,40.36,176v-20.1H20.1a4.34,4.34,0,0,0-4.33,4.33ZM56.14,99.75H77c11.33,0,21.93-9.44,22.7-20.21A21.84,21.84,0,0,0,76.35,56.19C65.58,57,56.14,67.56,56.14,78.89Z"/><path class="cls-3" d="M56.14,155.89l.06,20a18.81,18.81,0,0,1-.47,4.34l-19.64.06A4.33,4.33,0,0,0,40.42,176l-.06-20.07Z"/><path class="cls-4" d="M60.12,66.1a22.62,22.62,0,0,0-4,12.75l.07,20.9H40.36L40.3,78.89a36.84,36.84,0,0,1,2.27-12.73Z"/></g></g></svg>